<mxfile host="app.diagrams.net" agent="Mozilla/5.0 (X11; Linux x86_64; rv:133.0) Gecko/20100101 Firefox/133.0" version="25.0.1">
  <diagram name="Page-1" id="4NHl540B_YYMlPFxt3do">
    <mxGraphModel dx="1839" dy="545" grid="1" gridSize="10" guides="1" tooltips="1" connect="1" arrows="1" fold="1" page="1" pageScale="1" pageWidth="850" pageHeight="1100" math="0" shadow="0">
      <root>
        <mxCell id="0" />
        <mxCell id="1" parent="0" />
        <mxCell id="tl-7FCypKeyMNdoWpPQX-10" value="" style="rounded=0;whiteSpace=wrap;html=1;" parent="1" vertex="1">
          <mxGeometry x="80" y="40" width="600" height="300" as="geometry" />
        </mxCell>
        <mxCell id="tl-7FCypKeyMNdoWpPQX-5" style="edgeStyle=orthogonalEdgeStyle;rounded=0;orthogonalLoop=1;jettySize=auto;html=1;entryX=0;entryY=0.5;entryDx=0;entryDy=0;" parent="1" source="tl-7FCypKeyMNdoWpPQX-1" target="tl-7FCypKeyMNdoWpPQX-2" edge="1">
          <mxGeometry relative="1" as="geometry" />
        </mxCell>
        <mxCell id="tl-7FCypKeyMNdoWpPQX-6" style="edgeStyle=orthogonalEdgeStyle;rounded=0;orthogonalLoop=1;jettySize=auto;html=1;entryX=0;entryY=0.5;entryDx=0;entryDy=0;" parent="1" source="tl-7FCypKeyMNdoWpPQX-1" target="tl-7FCypKeyMNdoWpPQX-4" edge="1">
          <mxGeometry relative="1" as="geometry" />
        </mxCell>
        <mxCell id="tl-7FCypKeyMNdoWpPQX-1" value="nginx" style="rounded=0;whiteSpace=wrap;html=1;" parent="1" vertex="1">
          <mxGeometry x="121" y="160" width="80" height="40" as="geometry" />
        </mxCell>
        <mxCell id="tl-7FCypKeyMNdoWpPQX-8" style="edgeStyle=orthogonalEdgeStyle;rounded=0;orthogonalLoop=1;jettySize=auto;html=1;entryX=0;entryY=0.5;entryDx=0;entryDy=0;" parent="1" source="tl-7FCypKeyMNdoWpPQX-2" target="tl-7FCypKeyMNdoWpPQX-7" edge="1">
          <mxGeometry relative="1" as="geometry" />
        </mxCell>
        <mxCell id="tl-7FCypKeyMNdoWpPQX-2" value="lab-service-1" style="rounded=0;whiteSpace=wrap;html=1;" parent="1" vertex="1">
          <mxGeometry x="280" y="80" width="80" height="40" as="geometry" />
        </mxCell>
        <mxCell id="tl-7FCypKeyMNdoWpPQX-9" style="edgeStyle=orthogonalEdgeStyle;rounded=0;orthogonalLoop=1;jettySize=auto;html=1;entryX=0;entryY=0.5;entryDx=0;entryDy=0;" parent="1" source="tl-7FCypKeyMNdoWpPQX-4" target="tl-7FCypKeyMNdoWpPQX-7" edge="1">
          <mxGeometry relative="1" as="geometry" />
        </mxCell>
        <mxCell id="tl-7FCypKeyMNdoWpPQX-4" value="lab-service-2" style="rounded=0;whiteSpace=wrap;html=1;" parent="1" vertex="1">
          <mxGeometry x="280" y="240" width="80" height="40" as="geometry" />
        </mxCell>
        <mxCell id="m3om6_4WYFqxDo08hMJY-5" style="edgeStyle=orthogonalEdgeStyle;rounded=0;orthogonalLoop=1;jettySize=auto;html=1;entryX=0;entryY=0.5;entryDx=0;entryDy=0;" edge="1" parent="1" source="tl-7FCypKeyMNdoWpPQX-7" target="m3om6_4WYFqxDo08hMJY-1">
          <mxGeometry relative="1" as="geometry" />
        </mxCell>
        <mxCell id="m3om6_4WYFqxDo08hMJY-6" style="edgeStyle=orthogonalEdgeStyle;rounded=0;orthogonalLoop=1;jettySize=auto;html=1;entryX=0;entryY=0.5;entryDx=0;entryDy=0;" edge="1" parent="1" source="tl-7FCypKeyMNdoWpPQX-7" target="m3om6_4WYFqxDo08hMJY-2">
          <mxGeometry relative="1" as="geometry" />
        </mxCell>
        <mxCell id="m3om6_4WYFqxDo08hMJY-7" style="edgeStyle=orthogonalEdgeStyle;rounded=0;orthogonalLoop=1;jettySize=auto;html=1;entryX=0;entryY=0.5;entryDx=0;entryDy=0;" edge="1" parent="1" source="tl-7FCypKeyMNdoWpPQX-7" target="m3om6_4WYFqxDo08hMJY-3">
          <mxGeometry relative="1" as="geometry" />
        </mxCell>
        <mxCell id="tl-7FCypKeyMNdoWpPQX-7" value="pgcat" style="rounded=0;whiteSpace=wrap;html=1;" parent="1" vertex="1">
          <mxGeometry x="440" y="160" width="80" height="40" as="geometry" />
        </mxCell>
        <mxCell id="tl-7FCypKeyMNdoWpPQX-11" value="docker engine" style="text;html=1;align=center;verticalAlign=middle;whiteSpace=wrap;rounded=0;" parent="1" vertex="1">
          <mxGeometry x="280" y="310" width="80" height="30" as="geometry" />
        </mxCell>
        <mxCell id="tl-7FCypKeyMNdoWpPQX-12" value="" style="endArrow=classic;html=1;rounded=0;entryX=0;entryY=0.5;entryDx=0;entryDy=0;" parent="1" target="tl-7FCypKeyMNdoWpPQX-1" edge="1">
          <mxGeometry width="50" height="50" relative="1" as="geometry">
            <mxPoint y="180" as="sourcePoint" />
            <mxPoint x="50" y="160" as="targetPoint" />
          </mxGeometry>
        </mxCell>
        <mxCell id="tl-7FCypKeyMNdoWpPQX-14" value="port:8080" style="text;html=1;align=center;verticalAlign=middle;whiteSpace=wrap;rounded=0;" parent="1" vertex="1">
          <mxGeometry x="20" y="150" width="60" height="30" as="geometry" />
        </mxCell>
        <mxCell id="m3om6_4WYFqxDo08hMJY-1" value="pg1" style="rounded=0;whiteSpace=wrap;html=1;" vertex="1" parent="1">
          <mxGeometry x="580" y="80" width="80" height="40" as="geometry" />
        </mxCell>
        <mxCell id="m3om6_4WYFqxDo08hMJY-2" value="pg2" style="rounded=0;whiteSpace=wrap;html=1;" vertex="1" parent="1">
          <mxGeometry x="580" y="160" width="80" height="40" as="geometry" />
        </mxCell>
        <mxCell id="m3om6_4WYFqxDo08hMJY-3" value="pg3" style="rounded=0;whiteSpace=wrap;html=1;" vertex="1" parent="1">
          <mxGeometry x="580" y="240" width="80" height="40" as="geometry" />
        </mxCell>
        <mxCell id="m3om6_4WYFqxDo08hMJY-8" style="edgeStyle=orthogonalEdgeStyle;rounded=0;orthogonalLoop=1;jettySize=auto;html=1;entryX=0.5;entryY=1;entryDx=0;entryDy=0;" edge="1" parent="1" source="m3om6_4WYFqxDo08hMJY-4" target="tl-7FCypKeyMNdoWpPQX-7">
          <mxGeometry relative="1" as="geometry" />
        </mxCell>
        <mxCell id="m3om6_4WYFqxDo08hMJY-4" value="lab-db-setup" style="rounded=0;whiteSpace=wrap;html=1;" vertex="1" parent="1">
          <mxGeometry x="440" y="290" width="80" height="40" as="geometry" />
        </mxCell>
      </root>
    </mxGraphModel>
  </diagram>
</mxfile>
